HIERARCHY
ROOT Hips
{
	OFFSET -0.001795 -0.223333 0.028219
	CHANNELS 6 Xposition Yposition Zposition Zrotation Yrotation Xrotation 
	JOINT LeftUpLeg
	{
		OFFSET 0.069520 -0.091406 -0.006815
		CHANNELS 3 Zrotation Yrotation Xrotation
		JOINT LeftLeg
		{
			OFFSET 0.034277 -0.375199 -0.004496
			CHANNELS 3 Zrotation Yrotation Xrotation
			JOINT LeftFoot
			{
				OFFSET -0.013596 -0.397961 -0.043693
				CHANNELS 3 Zrotation Yrotation Xrotation
				JOINT LeftToe
				{
					OFFSET 0.026358 -0.055791 0.119288
					CHANNELS 3 Zrotation Yrotation Xrotation
					End Site
					{
						OFFSET 0.000000 0.000000 0.000000
					}
				}
			}
		}
	}
	JOINT RightUpLeg
	{
		OFFSET -0.067670 -0.090522 -0.004320
		CHANNELS 3 Zrotation Yrotation Xrotation
		JOINT RightLeg
		{
			OFFSET -0.038290 -0.382569 -0.008850
			CHANNELS 3 Zrotation Yrotation Xrotation
			JOINT RightFoot
			{
				OFFSET 0.015774 -0.398415 -0.042312
				CHANNELS 3 Zrotation Yrotation Xrotation
				JOINT RightToe
				{
					OFFSET -0.025372 -0.048144 0.123348
					CHANNELS 3 Zrotation Yrotation Xrotation
					End Site
					{
						OFFSET 0.000000 0.000000 0.000000
					}
				}
			}
		}
	}
	JOINT Spine
	{
		OFFSET -0.002533 0.108963 -0.026696
		CHANNELS 3 Zrotation Yrotation Xrotation
		JOINT Spine1
		{
			OFFSET 0.005487 0.135180 0.001092
			CHANNELS 3 Zrotation Yrotation Xrotation
			JOINT Spine2
			{
				OFFSET 0.001457 0.052922 0.025425
				CHANNELS 3 Zrotation Yrotation Xrotation
				JOINT Neck
				{
					OFFSET -0.002778 0.213870 -0.042857
					CHANNELS 3 Zrotation Yrotation Xrotation
					JOINT Head
					{
						OFFSET 0.005152 0.064970 0.051349
						CHANNELS 3 Zrotation Yrotation Xrotation
						End Site
						{
							OFFSET 0.000000 0.000000 0.000000
						}
					}
				}
				JOINT LeftShoulder
				{
					OFFSET 0.078845 0.121749 -0.034090
					CHANNELS 3 Zrotation Yrotation Xrotation
					JOINT LeftArm
					{
						OFFSET 0.090977 0.030469 -0.008868
						CHANNELS 3 Zrotation Yrotation Xrotation
						JOINT LeftForeArm
						{
							OFFSET 0.259612 -0.012772 -0.027456
							CHANNELS 3 Zrotation Yrotation Xrotation
							JOINT LeftHand
							{
								OFFSET 0.249234 0.008986 -0.001171
								CHANNELS 3 Zrotation Yrotation Xrotation
								End Site
								{
									OFFSET 0.000000 0.000000 0.000000
								}
							}
						}
					}
				}
				JOINT RightShoulder
				{
					OFFSET -0.081759 0.118833 -0.038615
					CHANNELS 3 Zrotation Yrotation Xrotation
					JOINT RightArm
					{
						OFFSET -0.096012 0.032551 -0.009143
						CHANNELS 3 Zrotation Yrotation Xrotation
						JOINT RightForeArm
						{
							OFFSET -0.253742 -0.013329 -0.021401
							CHANNELS 3 Zrotation Yrotation Xrotation
							JOINT RightHand
							{
								OFFSET -0.255298 0.007772 -0.005559
								CHANNELS 3 Zrotation Yrotation Xrotation
								End Site
								{
									OFFSET 0.000000 0.000000 0.000000
								}
							}
						}
					}
				}
			}
		}
	}
}
MOTION
Frames: 14
Frame Time: 0.050000
-0.260142 0.964087 0.212045 -177.130798 76.519211 177.280319 0.039377 -1.251620 2.962315 5.066429 -0.477322 -2.711234 -10.217125 -6.135966 11.077991 0.000000 0.000000 0.000000 3.244111 -2.491964 8.708078 4.573459 -3.132159 -2.393466 -10.928308 -17.153882 17.593464 0.000000 0.000000 0.000000 -6.372514 -0.701983 7.216779 4.838910 1.908787 -24.091851 1.715674 7.957637 30.021325 6.763830 9.338374 -38.829979 0.000000 0.000000 0.000000 -7.781424 -25.679656 -12.149969 -47.722558 -37.645252 5.812507 9.652356 -44.843127 -12.595552 0.000000 0.000000 0.000000 -4.897338 21.086693 17.366364 22.182651 76.911257 29.607452 -27.276655 -1.081143 -0.583795 0.000000 0.000000 0.000000 
-0.261044 0.964792 0.212013 -176.975039 76.494221 177.652716 0.025601 -1.217521 2.771904 5.149280 -0.484389 -2.915943 -10.409033 -6.028107 11.347871 0.000000 0.000000 0.000000 3.250372 -2.524057 8.813690 4.646958 -3.052449 -3.114672 -11.036676 -16.911472 18.049413 0.000000 0.000000 0.000000 -6.103845 -0.671828 7.214775 4.551484 1.933574 -23.855510 1.615409 7.592078 29.760163 6.616575 9.317178 -38.707308 0.000000 0.000000 0.000000 -6.992268 -26.289112 -10.916630 -47.214840 -40.006977 5.509082 10.562006 -43.887826 -12.645371 0.000000 0.000000 0.000000 -6.117790 21.489992 16.538065 20.210553 77.286510 28.945914 -26.989546 -1.919070 -0.389876 0.000000 0.000000 0.000000 
-0.262643 0.965544 0.212139 -177.170014 77.286499 177.508463 -0.092026 -1.117368 2.518010 5.189844 -0.449902 -2.542256 -10.146444 -5.528125 11.428247 0.000000 0.000000 0.000000 3.211494 -2.522627 8.878615 4.428176 -2.845127 -3.503537 -10.831340 -16.275026 18.184697 0.000000 0.000000 0.000000 -6.270846 -0.728734 7.748313 4.810949 1.884329 -23.530994 1.386475 7.186837 29.237762 6.439289 9.291825 -38.216939 0.000000 0.000000 0.000000 -6.527126 -26.785466 -9.592673 -44.879637 -42.515247 5.249943 12.889562 -42.204022 -12.952340 0.000000 0.000000 0.000000 -7.553677 22.650765 15.589157 16.883733 77.652990 26.882794 -27.374962 -2.592930 -0.256287 0.000000 0.000000 0.000000 
-0.264514 0.965869 0.212201 -176.862626 78.136851 177.958591 -0.092352 -1.073854 2.420247 5.218559 -0.440485 -2.651594 -9.788940 -4.922211 11.504618 0.000000 0.000000 0.000000 3.429511 -2.380720 8.622394 3.997034 -2.590671 -3.575866 -10.695706 -15.858924 18.203647 0.000000 0.000000 0.000000 -6.232285 -0.784938 8.464024 5.223960 1.793659 -23.677623 1.024516 6.703158 29.045903 6.520234 9.233528 -37.833134 0.000000 0.000000 0.000000 -5.662144 -26.901574 -8.064010 -42.558032 -45.878662 4.544868 15.847417 -39.430833 -13.164457 0.000000 0.000000 0.000000 -8.955638 23.105295 14.205764 14.606593 78.513702 26.073241 -27.679482 -2.860124 -0.235319 0.000000 0.000000 0.000000 
-0.266010 0.965817 0.212040 -176.062327 79.625584 178.965164 -0.026123 -0.980646 2.050355 5.214476 -0.402632 -2.210095 -8.952240 -4.111717 11.274460 0.000000 0.000000 0.000000 3.286749 -2.263264 8.334024 4.144023 -2.568521 -3.635686 -10.066484 -14.752170 17.815173 0.000000 0.000000 0.000000 -6.225791 -0.804674 8.764509 5.277732 1.759151 -23.174268 0.945451 6.346417 28.638309 6.355930 9.197388 -37.579346 0.000000 0.000000 0.000000 -4.987448 -26.969927 -6.648347 -39.485120 -48.812570 3.522747 17.735288 -36.674962 -12.769129 0.000000 0.000000 0.000000 -10.657708 24.169687 12.873262 11.178485 79.052510 24.048609 -28.390821 -3.141665 -0.189166 0.000000 0.000000 0.000000 
-0.266944 0.965193 0.211643 -174.371079 81.349126 -179.114472 0.076758 -0.911018 1.801461 5.270885 -0.367137 -1.898006 -7.867918 -3.176901 10.901152 0.000000 0.000000 0.000000 3.183147 -2.086468 7.868145 4.327396 -2.591604 -3.371631 -9.301107 -13.605604 17.138817 0.000000 0.000000 0.000000 -6.221508 -0.835883 9.156990 5.659795 1.649996 -22.916276 0.509821 6.276927 28.220633 6.619206 9.019022 -36.560212 0.000000 0.000000 0.000000 -4.541611 -27.104139 -5.332923 -36.219714 -50.984736 2.346661 19.559678 -33.546428 -12.179575 0.000000 0.000000 0.000000 -10.677395 24.759908 12.485409 7.947349 79.662166 21.166645 -29.512442 -2.356494 -0.397648 0.000000 0.000000 0.000000 
-0.267624 0.964647 0.211182 -171.789996 82.867374 -176.407821 0.510587 -0.921082 1.531974 4.784406 -0.367174 -1.369113 -6.803929 -2.302571 10.526507 0.000000 0.000000 0.000000 3.224022 -1.972253 7.640300 4.341200 -2.523375 -3.313195 -8.657401 -12.601926 16.643185 0.000000 0.000000 0.000000 -6.399996 -0.864795 9.359122 6.016501 1.542758 -22.725515 0.422802 5.926875 28.119334 6.569569 8.947392 -36.350772 0.000000 0.000000 0.000000 -4.456784 -27.034291 -4.621329 -33.997952 -52.819776 1.537677 20.253490 -30.733823 -11.168888 0.000000 0.000000 0.000000 -11.165889 25.381419 11.852363 7.908239 80.143522 21.148412 -31.429118 -0.959239 -0.737933 0.000000 0.000000 0.000000 
-0.268566 0.964027 0.210764 -168.504737 84.557725 -172.936756 0.884902 -0.894424 1.129455 4.199853 -0.375353 -0.697302 -5.664576 -1.295435 10.178028 0.000000 0.000000 0.000000 3.231224 -1.746571 6.990100 4.208039 -2.461265 -2.655708 -7.986346 -11.653239 15.949557 0.000000 0.000000 0.000000 -6.433675 -0.863334 9.440463 6.144257 1.467365 -22.150833 0.204788 5.903621 27.366108 6.920051 8.652738 -35.239656 0.000000 0.000000 0.000000 -4.386297 -27.060312 -3.783603 -31.869118 -53.894750 0.762426 21.158270 -28.291314 -10.451290 0.000000 0.000000 0.000000 -10.378235 25.980847 12.138860 7.262044 80.309046 19.703409 -33.721129 1.332282 -1.326779 0.000000 0.000000 0.000000 
-0.269793 0.963490 0.210462 -163.909196 85.641589 -168.065687 1.472888 -0.921604 0.550110 3.352941 -0.418333 -0.077785 -4.822293 -0.583900 9.935329 0.000000 0.000000 0.000000 3.198300 -1.569111 6.402860 4.347751 -2.500630 -2.309890 -7.525968 -10.924609 15.532143 0.000000 0.000000 0.000000 -6.820525 -0.883591 9.378567 6.539477 1.345041 -22.652757 0.242907 5.665050 27.802903 6.706009 8.697792 -35.482582 0.000000 0.000000 0.000000 -4.465878 -27.109866 -3.513455 -30.385928 -54.582303 0.231604 22.072112 -27.326065 -10.304153 0.000000 0.000000 0.000000 -10.223042 26.406222 12.129599 7.626611 80.303109 19.578709 -35.371693 2.726574 -1.716156 0.000000 0.000000 0.000000 
-0.271051 0.962866 0.210043 -154.984528 86.573765 -158.997312 1.940270 -0.971512 0.324278 2.930744 -0.434617 0.165668 -4.033038 0.106352 9.729456 0.000000 0.000000 0.000000 3.516330 -1.402497 6.004288 4.108766 -2.380315 -2.067042 -7.178938 -10.392889 15.201424 0.000000 0.000000 0.000000 -7.004734 -0.884388 9.319367 6.964121 1.219835 -22.565022 0.098249 5.966357 27.270794 7.130163 8.415767 -34.291944 0.000000 0.000000 0.000000 -4.784399 -27.597735 -3.319672 -29.540284 -54.169500 0.235093 22.702683 -26.771739 -10.276205 0.000000 0.000000 0.000000 -9.077004 26.695433 12.876292 6.967001 79.548070 17.838991 -37.316925 5.206451 -2.374383 0.000000 0.000000 0.000000 
-0.271776 0.962191 0.209330 -145.252211 87.261969 -149.257522 2.456127 -1.050346 0.268293 2.129110 -0.482350 0.382127 -3.344122 0.717956 9.535549 0.000000 0.000000 0.000000 3.539456 -1.316111 5.735293 4.100771 -2.378487 -1.696473 -6.810226 -9.914480 14.778916 0.000000 0.000000 0.000000 -6.919664 -0.824824 8.889590 6.886326 1.219870 -22.371121 0.351196 5.919636 27.342716 6.791718 8.479885 -34.015826 0.000000 0.000000 0.000000 -5.747086 -27.665847 -3.757635 -29.875291 -53.443824 0.997560 23.122887 -28.415224 -10.856856 0.000000 0.000000 0.000000 -8.212055 27.007776 13.417751 6.466386 78.770074 16.497836 -38.587060 6.569551 -2.716441 0.000000 0.000000 0.000000 
-0.271895 0.961726 0.208193 -135.869247 87.493370 -139.834172 2.900107 -1.133646 0.184329 1.554161 -0.525177 0.549156 -2.873666 1.043139 9.361047 0.000000 0.000000 0.000000 3.649236 -1.268402 5.632789 4.089292 -2.365341 -1.615182 -6.626491 -9.652191 14.608934 0.000000 0.000000 0.000000 -7.159869 -0.812563 8.553507 7.256226 1.122936 -22.196545 0.257013 6.338931 27.479449 6.844681 8.425064 -33.488423 0.000000 0.000000 0.000000 -6.661397 -27.873998 -4.441133 -30.291222 -52.388061 1.812154 23.228113 -31.169218 -11.818517 0.000000 0.000000 0.000000 -6.764791 26.774623 14.350270 6.727331 77.692394 15.555353 -40.197920 8.484173 -3.274283 0.000000 0.000000 0.000000 
-0.271615 0.961624 0.206673 -135.295252 87.318337 -139.259497 2.896790 -1.157328 0.365510 1.661599 -0.515703 0.241157 -2.882981 0.957680 9.309864 0.000000 0.000000 0.000000 3.800118 -1.219410 5.499254 3.943983 -2.346473 -1.352270 -6.720260 -9.828023 14.611799 0.000000 0.000000 0.000000 -7.119277 -0.769599 8.073218 7.275168 1.121474 -21.873788 0.340746 6.397021 27.285787 6.715070 8.436764 -33.175834 0.000000 0.000000 0.000000 -7.295613 -27.654348 -5.076760 -31.948528 -51.416383 2.812920 22.645260 -34.704562 -12.887316 0.000000 0.000000 0.000000 -5.515189 25.958907 14.826473 11.172076 76.650988 18.142227 -41.029748 10.540500 -3.850467 0.000000 0.000000 0.000000 
-0.271082 0.961776 0.204843 -144.139332 86.740494 -148.208671 2.859427 -1.194461 0.540483 1.562504 -0.540892 0.012773 -3.247509 0.491537 9.314291 0.000000 0.000000 0.000000 3.933069 -1.256083 5.665222 3.644684 -2.259307 -1.372016 -7.090382 -10.454950 14.836028 0.000000 0.000000 0.000000 -7.327236 -0.776086 7.780700 7.335196 1.155154 -22.437592 0.202669 6.524931 27.985157 6.591243 8.576651 -33.201133 0.000000 0.000000 0.000000 -7.690769 -27.585013 -5.995160 -33.976024 -50.217638 3.752318 21.466454 -39.467199 -14.318043 0.000000 0.000000 0.000000 -4.717432 25.248761 15.364073 13.648827 75.049540 19.162875 -41.755694 11.635633 -4.121963 0.000000 0.000000 0.000000 
